<?xml version="1.0" encoding="utf-8"?>
<!-- Generator: Adobe Illustrator 19.0.0, SVG Export Plug-In . SVG Version: 6.00 Build 0)  -->
<svg version="1.1" id="Layer_1" xmlns="http://www.w3.org/2000/svg" xmlns:xlink="http://www.w3.org/1999/xlink" x="0px" y="0px"
	 viewBox="0 0 90 90" style="enable-background:new 0 0 90 90;" xml:space="preserve">
<style type="text/css">
	.st0{fill:#0F2748;}
	.st1{fill:#BFC3D0;}
	.st2{fill:#FFFFFF;}
</style>
<polygon class="st0" points="44.6,0.6 84.2,22.2 84.2,66.9 45.6,89.4 5.8,67.7 5.8,23.4 "/>
<polygon class="st1" points="44.9,11.4 74.2,28.1 74.2,62 45.3,78.6 15.8,62.1 15.8,28 "/>
<path class="st0" d="M37.8,34c0,0-15.8-1.8-16.8,9.6c0,0,0.8,6.9,6,9.4c0,0,0.2,5-2.2,5.7c0,0-2,1.9,1.9,0.4
	c0.4-0.2,4.5-1.3,5.9-4.7c0-0.1,0-0.1,0.1-0.2c1.3-3.5,0,0.1,0,0.1s5-1,10.2-5c0,0-2.9-1.9-2.9-2.5c0,0-7.5,4-12.2,0.5
	c0,0-3.6-3.6,0.5-7.4c0,0,6.1-1.8,8.2-1L37.8,34z"/>
<path class="st0" d="M45,27.1c0,0,9.8-4.5,18.8,3.1c0,0,3.5,3.7,3.4,6.6c0,0,1.6,7.5-6.1,12c0,0-3.1,1.8-3.9,1.9
	c0,0,0.9,4.7,2.4,5.1c0,0,1.3,1.8-2.3,0.6c0,0-6.5-2.3-7.2-5.1c0,0-12.3-0.3-13.7-12.7C36.4,38.6,37.3,30.3,45,27.1z"/>
<path class="st2" d="M42.6,36c0,0,8.3-10.1,18.4-0.7c0,0,6.1,9.2-10.2,11.3c0,0-6,0-8.8-5.3C42,41.3,40.7,37.8,42.6,36z"/>
<path class="st2" d="M36.4,39c0,0,1.7,7.3,3.6,7.8l-2.9,1.3c-7.7,3.6-10.3-2-10.3-2c-3.3-7.6,6.9-7.1,6.9-7.1"/>
</svg>
