<?xml version="1.0" encoding="utf-8"?>
<!-- Generator: Adobe Illustrator 19.0.0, SVG Export Plug-In . SVG Version: 6.00 Build 0)  -->
<svg version="1.1" id="Layer_1" xmlns="http://www.w3.org/2000/svg" xmlns:xlink="http://www.w3.org/1999/xlink" x="0px" y="0px"
	 viewBox="0 0 90 90" style="enable-background:new 0 0 90 90;" xml:space="preserve">
<style type="text/css">
	.st0{fill:#0F2748;}
	.st1{fill:#BFC3D0;}
</style>
<polygon class="st0" points="44.6,0.6 84.2,22.2 84.2,66.9 45.6,89.4 5.8,67.7 5.8,23.4 "/>
<polygon class="st1" points="44.9,11.4 74.2,28.1 74.2,62 45.3,78.6 15.8,62.1 15.8,28 "/>
<path class="st0" d="M25.1,38.8c4,2.8,8,5.6,11.9,8.3c1.2,0.8,2.4,1.7,3.6,2.5c2.9,1.9,5.8,1.9,8.7,0c2.5-1.7,4.9-3.5,7.4-5.2
	c2.3-1.6,4.6-3.2,6.8-4.7c0.4-0.3,0.8-0.7,1.3-1.1c0,0.3,0,0.5,0,0.7c0,5.5,0,10.9,0,16.4c0,2.5-1.4,3.9-3.9,3.9
	c-10.6,0-21.3,0-31.9,0c-2.5,0-3.9-1.4-3.9-3.9c0-5.5,0-10.9,0-16.4C25.1,39.1,25.1,38.9,25.1,38.8z"/>
<path class="st0" d="M45,28.4c5.2,0,10.4,0.1,15.6,0c3.3-0.1,5.4,2.6,3.6,6.2c-0.8,1.5-2,2.7-3.3,3.6c-4,2.8-8.1,5.6-12.1,8.4
	c-0.5,0.4-1.1,0.7-1.6,1c-1.5,0.9-3,0.9-4.4,0c-1.5-0.9-2.9-1.9-4.3-2.9c-3.3-2.3-6.6-4.6-9.9-6.9c-1.3-0.9-2.3-2.1-3-3.6
	c-0.6-1.3-0.6-2.7,0.1-4c0.7-1.3,1.8-1.8,3.2-1.8C34.2,28.4,39.6,28.4,45,28.4z"/>
</svg>
