<?xml version="1.0" encoding="utf-8"?>
<!-- Generator: Adobe Illustrator 19.0.0, SVG Export Plug-In . SVG Version: 6.00 Build 0)  -->
<svg version="1.1" id="Layer_1" xmlns="http://www.w3.org/2000/svg" xmlns:xlink="http://www.w3.org/1999/xlink" x="0px" y="0px"
	 viewBox="0 0 90 90" style="enable-background:new 0 0 90 90;" xml:space="preserve">
<style type="text/css">
	.st0{fill:#0F2748;}
	.st1{fill:#BFC3D0;}
</style>
<g>
	<polygon class="st0" points="44.6,0.6 84.2,22.2 84.2,66.9 45.6,89.4 5.8,67.7 5.8,23.4 	"/>
	<polygon class="st1" points="44.9,11.4 74.3,28.1 74.3,62 45.3,78.6 15.8,62.1 15.8,28 	"/>
</g>
<g>
	<path class="st0" d="M32.4,23.4h18.3L63,35v25.3c0,0-0.4,3.1-3.6,3.7h-27c0,0-2.1-0.1-3.3-3.4V26.7C29.1,26.7,29.4,24.2,32.4,23.4z
		"/>
	<path class="st1" d="M32.6,26h16.7v8.3c0,0,1.5,3.5,5.3,2.9l5.8,0.1v22.5c0,0,0.2,2.3-3.1,1.8L33,61.5c0,0-1.6,0.5-1.1-3.7
		l-0.1-29.6C31.8,28.2,31.4,26,32.6,26z"/>
	<polygon class="st1" points="52.1,28 58.3,34.5 52.1,34.5 	"/>
	<path class="st0" d="M35.8,34.5h8.3c0,0,3,1.1,0,2.6h-8.3C35.8,37,34.1,36.2,35.8,34.5z"/>
	<path class="st0" d="M36.5,41.1h19.5c0,0,2.3,1.2,0,2.6H36.5C36.5,43.7,33.4,42.8,36.5,41.1z"/>
	<path class="st0" d="M35.9,47.9h20.2c0,0,2,2,0,2.3H35.9C35.9,50.3,34.3,49.8,35.9,47.9z"/>
	<path class="st0" d="M36.1,54.8H56c0,0,2.2,0.7,0,2.3H36.1C36.1,57.1,33.8,55.7,36.1,54.8z"/>
</g>
</svg>
