<?xml version="1.0" encoding="utf-8"?>
<!-- Generator: Adobe Illustrator 19.0.0, SVG Export Plug-In . SVG Version: 6.00 Build 0)  -->
<svg version="1.1" id="Layer_1" xmlns="http://www.w3.org/2000/svg" xmlns:xlink="http://www.w3.org/1999/xlink" x="0px" y="0px"
	 viewBox="0 0 90 90" style="enable-background:new 0 0 90 90;" xml:space="preserve">
<style type="text/css">
	.st0{fill:#0F2748;}
	.st1{fill:#BFC3D0;}
	.st2{fill:#FDFDFE;}
</style>
<polygon class="st0" points="44.6,0.6 84.2,22.2 84.2,66.9 45.6,89.4 5.8,67.7 5.8,23.4 "/>
<polygon class="st1" points="44.9,11.4 74.2,28.1 74.2,62 45.3,78.6 15.8,62.1 15.8,28 "/>
<path class="st0" d="M29.1,28.8h30.8c0,0,4.1-0.3,4.9,4.6c0,0,2.4,6.8,0,19.1c0,0-0.3,5.8-8.2,4.6l-27.4,0.1c0,0-3.6-0.9-4.6-9.5
	S25.7,27.6,29.1,28.8z"/>
<polygon class="st2" points="41,35.6 41,50.5 52.4,43.1 "/>
</svg>
