<?xml version="1.0" encoding="utf-8"?>
<!-- Generator: Adobe Illustrator 19.0.0, SVG Export Plug-In . SVG Version: 6.00 Build 0)  -->
<svg version="1.1" id="Layer_1" xmlns="http://www.w3.org/2000/svg" xmlns:xlink="http://www.w3.org/1999/xlink" x="0px" y="0px"
	 viewBox="-261 365.3 87.7 62.7" style="enable-background:new -261 365.3 87.7 62.7;" xml:space="preserve">
<style type="text/css">
	.st0{fill:#0F2748;}
	.st1{fill:#FFFFFF;}
	.st2{fill:#070909;}
	.st3{fill:#E7D756;}
	.st4{fill:#E6D755;}
</style>
<g id="Layer_8">
	<g>
		<polygon class="st0" points="-216.2,426.6 -242.7,412 -243.3,381.8 -217.4,366.2 -190.9,380.7 -190.3,411 		"/>
		<polygon class="st1" points="-216.3,419.1 -236.2,408.2 -236.7,385.4 -217.3,373.7 -197.3,384.6 -196.9,407.4 		"/>
		<path class="st2" d="M-224.1,388.3V386l-27.3-12.3h-7c0,0-1.8,0.3-1.8,1.3c0,0-0.1,0.4,0.2,0.7l9.3,11.6c0,0,0.7,0.9,3.5,0.9
			H-224.1z"/>
		<path class="st2" d="M-224.1,389.5v1.3l-16,7.2h-4.1c0,0-1.1-0.2-1.1-0.8c0,0-0.1-0.2,0.1-0.4l5.4-6.8c0,0,0.4-0.5,2.1-0.5
			C-237.6,389.5-224.1,389.5-224.1,389.5z"/>
		<path class="st2" d="M-209.9,388.3V386l27.3-12.3h7c0,0,1.8,0.3,1.8,1.3c0,0,0.1,0.4-0.2,0.7l-9.3,11.6c0,0-0.7,0.9-3.5,0.9
			L-209.9,388.3L-209.9,388.3z"/>
		<path class="st2" d="M-209.9,389.5v1.3l16,7.2h4.1c0,0,1.1-0.2,1.1-0.8c0,0,0.1-0.2-0.1-0.4l-5.4-6.8c0,0-0.4-0.5-2.1-0.5
			C-196.4,389.5-209.9,389.5-209.9,389.5z"/>
		<polygon class="st2" points="-220.2,379.9 -219.5,379.3 -229.4,375.6 		"/>
		<polyline class="st2" points="-204.2,375.5 -213.5,379.8 -214.1,379.2 		"/>
		<circle cx="-216.7" cy="404" r="11"/>
		<g>
			<path class="st3" d="M-216.8,410.1h-0.1l-10.5-3.6c0.2,1,0.6,1.9,1,2.7l9.6,3.4l9.7-3.3c0.5-0.9,0.8-1.8,1.1-2.8L-216.8,410.1z"
				/>
			<path class="st3" d="M-216.9,404.6l-10.3-3.6c-0.2,0.7-0.3,1.5-0.4,2.3l10.8,4l11.1-4c-0.1-0.8-0.2-1.5-0.4-2.2l-10.7,3.5H-216.9
				z"/>
			<path class="st3" d="M-216.9,399.1l-7.7-2.7c-0.5,0.6-1,1.2-1.4,1.9l9.3,3.4l9.5-3.4c-0.4-0.7-0.9-1.3-1.4-1.8l-8.1,2.7H-216.9z"
				/>
			<path class="st3" d="M-216.8,396.2l5.3-1.9c-1.5-0.8-3.3-1.3-5.2-1.3c-1.9,0-3.7,0.5-5.2,1.3L-216.8,396.2z"/>
		</g>
		<path class="st2" d="M-216.8,414.9l-1.2,0.6c0,0,0.6,4.5,1.2,8.6c0,0,1.2-7.7,1.2-8.7L-216.8,414.9z"/>
		<path class="st3" d="M-216.8,413.9c0,0-1.2,0.5-1.8,1l0.5,0.6l2.4-0.1l0.5-0.5C-215.1,414.9-216,414-216.8,413.9z"/>
		<circle class="st2" cx="-216.8" cy="384.1" r="4.4"/>
		<polygon class="st4" points="-216.6,397.7 -223.9,393.7 -224.1,385.4 -217,381.1 -209.7,385.1 -209.5,393.4 		"/>
		<polygon class="st2" points="-216.7,396.2 -222.7,392.9 -222.8,386.1 -216.9,382.5 -210.9,385.8 -210.8,392.7 		"/>
	</g>
</g>
</svg>
